<svg xmlns="http://www.w3.org/2000/svg" width="145" height="145" fill="none"><path fill="#459087" d="M56.038 24.75a48.004 48.004 0 0 0-14.502 9.968A47.927 47.927 0 0 0 30.08 52.997h23.958a2 2 0 0 0 2-2V24.749Z"/><path fill="#60C5B9" d="M66.924 21.402c15.008-2.725 31.06 1.714 42.663 13.316a47.935 47.935 0 0 1 11.456 18.28H68.924a2 2 0 0 1-2-2V21.401ZM84.627 116.006c-15.13 2.888-31.378-1.524-43.091-13.237a48.204 48.204 0 0 1-7.428-9.568h48.52a2 2 0 0 1 2 2v20.805Z"/><path fill="#459087" d="M29.386 82.315a48.339 48.339 0 0 1-1.7-18.431h54.941a2 2 0 0 1 2 2v14.43a2 2 0 0 1-2 2h-53.24ZM123.436 63.883c1.401 13.88-3.216 28.252-13.849 38.886a48.019 48.019 0 0 1-14.074 9.777V65.883a2 2 0 0 1 2-2h25.923Z"/><path fill="#148571" fill-rule="evenodd" d="M33.33 122.995c26.971 21.049 66.03 19.169 90.84-5.642 26.846-26.846 26.846-70.372 0-97.218-26.846-26.847-70.372-26.847-97.218 0C2.142 44.944.26 84.002 21.31 110.974l-18.82 18.82a8.5 8.5 0 0 0 12.02 12.021l18.82-18.82Zm81.648-14.835c-21.77 21.77-57.064 21.77-78.833 0-21.77-21.769-21.77-57.064 0-78.833 21.769-21.77 57.064-21.77 78.833 0s21.769 57.064 0 78.833Z" clip-rule="evenodd"/></svg>