<svg xmlns="http://www.w3.org/2000/svg" viewBox="0 0 447.54 140.99">
    <defs>
        <style>.cls-1{fill:#03234b;}.cls-2{fill:#FFFFFF;}</style>
    </defs>
    <g id="Layer_2" data-name="Layer 2">
        <g id="Logo">
            <polygon class="cls-2" points="13.6,43.3 29.8,65 13.6,86.6  "></polygon>
            <path class="cls-1"
                d="M214.35,0H57.62A29,29,0,0,0,31.07,17.27L.13,91.8a1.62,1.62,0,0,0,1.51,2.25H72.41c5,0,7.22-4.84,3.3-8.71L49.72,61c-13.66-13.39-7.8-44.44,20.57-44.44H208.84a1.64,1.64,0,0,0,1.55-1.09l5.48-13.25a1.59,1.59,0,0,0,.12-.62A1.64,1.64,0,0,0,214.35,0Z"></path>
            <path class="cls-1"
                d="M198.73,37.94l-26.61,0a4.3,4.3,0,0,0-4,2.63l-29.81,72a1.58,1.58,0,0,0-.19.75,1.62,1.62,0,0,0,1.63,1.61h9.93a29,29,0,0,0,26.81-17.67l0,0,23.69-57.19a1.73,1.73,0,0,0,.12-.6A1.6,1.6,0,0,0,198.73,37.94Z"></path>
            <path class="cls-1"
                d="M146.43,39.55a1.63,1.63,0,0,0-1.64-1.62H69.35c-4.09,0-7.67,5-3.34,9L90.93,70.14s10.09,9.3,7.93,22.61C97,104.47,89,111.64,83.17,114.22h0a.4.4,0,0,0,.18.77H112.4a4.29,4.29,0,0,0,4-2.63L146.3,40.12A1.25,1.25,0,0,0,146.43,39.55Z"></path>
        </g>
    </g>
</svg>