<svg width="145" height="145" viewBox="0 0 145 145" fill="none" xmlns="http://www.w3.org/2000/svg">
    <path
        d="M56.0377 24.7491C50.777 27.0823 45.8489 30.4054 41.5359 34.7184C36.205 40.0493 32.3864 46.3199 30.08 52.997H54.0377C55.1423 52.997 56.0377 52.1015 56.0377 50.997V24.7491Z"
        fill="#459087" />
    <path
        d="M66.9245 21.4016C81.932 18.6774 97.9847 23.1163 109.587 34.7183C114.918 40.0493 118.736 46.32 121.043 52.9971L68.9245 52.9971C67.8199 52.9971 66.9245 52.1017 66.9245 50.9971V21.4016Z"
        fill="#60C5B9" />
    <path
        d="M84.6272 116.006C69.4971 118.894 53.2486 114.482 41.5359 102.769C38.6016 99.8348 36.1255 96.6158 34.1076 93.2011L82.6272 93.201C83.7318 93.2011 84.6272 94.0965 84.6272 95.201V116.006Z"
        fill="#60C5B9" />
    <path
        d="M29.3861 82.3148C27.6305 76.3216 27.064 70.0539 27.6867 63.8836H82.6272C83.7318 63.8836 84.6272 64.779 84.6272 65.8836V80.3148C84.6272 81.4194 83.7318 82.3148 82.6272 82.3148H29.3861Z"
        fill="#459087" />
    <path
        d="M123.436 63.8835C124.837 77.7632 120.22 92.1355 109.587 102.769C105.391 106.965 100.613 110.224 95.5135 112.546V65.8835C95.5135 64.7789 96.4089 63.8835 97.5135 63.8835L123.436 63.8835Z"
        fill="#459087" />
    <path fill-rule="evenodd" clip-rule="evenodd"
        d="M33.3304 122.995C60.3014 144.044 99.3594 142.164 124.17 117.353C151.016 90.5067 151.016 46.9806 124.17 20.1345C97.3243 -6.71151 53.7982 -6.71151 26.9522 20.1345C2.14126 44.9455 0.260414 84.0033 21.3096 110.974L2.48959 129.794C-0.829864 133.114 -0.829864 138.496 2.48959 141.815C5.80905 145.135 11.191 145.135 14.5104 141.815L33.3304 122.995ZM114.978 108.16C93.2087 129.93 57.9138 129.93 36.1446 108.16C14.3753 86.3911 14.3753 51.0962 36.1446 29.3269C57.9138 7.55769 93.2087 7.55769 114.978 29.3269C136.747 51.0962 136.747 86.3911 114.978 108.16Z"
        fill="#148571" />
</svg>
    