<svg height="512" viewBox="0 0 64 64" width="512" xmlns="http://www.w3.org/2000/svg"><g id="Semiconductor-transistor-chip-electronics-14" data-name="Semiconductor-transistor-chip-electronics"><path d="m3 19h58v26h-58z" fill="#2d2d30"/><path d="m61 19a26 26 0 0 1 -26 26h-32v-26z" fill="#3e3d42"/><g fill="#e0e0e2"><path d="m54 45h4v5h-4z"/><path d="m46 45h4v5h-4z"/><path d="m38 45h4v5h-4z"/><path d="m30 45h4v5h-4z"/><path d="m22 45h4v5h-4z"/><path d="m14 45h4v5h-4z"/><path d="m6 45h4v5h-4z"/><circle cx="32" cy="32" r="9"/></g><path d="m27 27h10v10h-10z" fill="#006df0"/><path d="m37 27a10 10 0 0 1 -10 10v-10z" fill="#00d7df"/><path d="m3 28a4 4 0 0 1 0 8z" fill="#e0e0e2"/><path d="m6.95 32.5a3.938 3.938 0 0 0 .05-.5 4 4 0 0 0 -4-4v1a3.986 3.986 0 0 1 3.95 3.5z" fill="#c6c5ca"/><path d="m6 14h4v5h-4z" fill="#e0e0e2"/><path d="m14 14h4v5h-4z" fill="#e0e0e2"/><path d="m22 14h4v5h-4z" fill="#e0e0e2"/><path d="m30 14h4v5h-4z" fill="#e0e0e2"/><path d="m38 14h4v5h-4z" fill="#e0e0e2"/><path d="m46 14h4v5h-4z" fill="#e0e0e2"/><path d="m54 14h4v5h-4z" fill="#e0e0e2"/><path d="m6 45h4v1h-4z" fill="#acabb1"/><path d="m14 45h4v1h-4z" fill="#acabb1"/><path d="m22 45h4v1h-4z" fill="#acabb1"/><path d="m30 45h4v1h-4z" fill="#acabb1"/><path d="m38 45h4v1h-4z" fill="#acabb1"/><path d="m46 45h4v1h-4z" fill="#acabb1"/><path d="m54 45h4v1h-4z" fill="#acabb1"/></g></svg>