<svg xmlns="http://www.w3.org/2000/svg" viewBox="0 0 198.58 71.89" width="92" height="33" role="img"
    aria-labelledby="nxpLogoTitle">
    <title id="nxpLogoTitle">NXP</title>
    <g id="nxp-logo">
        <polyline fill="#7bb1db"
            points="119.11 0 115.08 0 100.23 23.9 85.37 0 81.33 0 81.34 71.89 85.37 71.89 100.23 48 115.08 71.89 119.15 71.89 119.11 71.83 119.11 0"></polyline>
        <polyline fill="#958437"
            points="81.33 0 59.31 0 81.31 35.95 59.31 71.89 81.34 71.89 81.33 0"></polyline>
        <polyline fill="#739833"
            points="141.15 0 119.11 0 119.11 71.83 119.15 71.89 141.14 71.89 119.15 35.95 141.15 0"></polyline>
        <path fill="#c9d200"
            d="M172.54,0h-31.4l-22,36,22,35.94h0V56h37.17c15.6,0,20.27-12.29,20.27-23V24.57c0-14.07-5.07-24.57-26-24.57ZM178,29c0,4.26-2,9.16-7.16,9.16H141.17V17.84H169c6.66,0,9,2.77,9,7.63V29Z"></path>
        <polyline fill="#ffb500"
            points="81.31 35.95 59.31 0 59.3 0 59.3 43.44 22.03 0 0 0 0 71.89 22.05 71.89 22.04 28.45 59.31 71.89 81.31 35.95"></polyline>
    </g>
</svg>