<svg xmlns="http://www.w3.org/2000/svg" version="1.1" id="Layer_1" x="0px" y="0px" width="192px"
    height="96px" viewBox="0 0 260 130" style="enable-background:new 0 0 260 130;"
    xml:space="preserve"><style type="text/css">
    .st0{fill:#010000;}
    .st1{fill-rule:evenodd;clip-rule:evenodd;fill:#FFFFFF;}
    .st2{fill-rule:evenodd;clip-rule:evenodd;fill:#005CA8;}
    .st3{fill-rule:evenodd;clip-rule:evenodd;fill:#010000;}
</style><g><g><path class="st1" d="M257.3,119.2c0,4.5-3.4,8.1-7.6,8.1H10.3c-4.2,0-7.6-3.6-7.6-8.1V10.8c0-4.5,3.4-8.1,7.6-8.1h239.4    c4.2,0,7.6,3.6,7.6,8.1"></path><path class="st0" d="M249.7,130H10.3C4.6,130,0,125.1,0,119.2V10.8C0,4.8,4.6,0,10.3,0h239.4c5.7,0,10.3,4.8,10.3,10.8v108.4    C260,125.1,255.4,130,249.7,130z M10.3,5.4c-2.7,0-4.9,2.4-4.9,5.4v108.4c0,3,2.2,5.4,4.9,5.4h239.4c2.7,0,4.9-2.4,4.9-5.4V10.8    c0-3-2.2-5.4-4.9-5.4H10.3z"></path></g><polygon class="st2" points="13.6,43.3 29.8,65 13.6,86.6  "></polygon><g><path class="st2" d="M37.6,24l27.1,35.2l0,0.2c0.7,0.9,1.8,1.7,3,1.7h173.3c2.1,0,3.8-1.9,3.8-4s-1.7-4-3.8-4H69.6L43.7,19.3l0,0    c-0.7-0.9-1.8-1.5-3-1.5c-2.1,0-3.8,1.7-3.8,3.8C36.9,22.5,37.2,23.3,37.6,24L37.6,24z"></path><path class="st2" d="M52.8,67.4c0.5-0.7,0.9-1.5,0.9-2.4s-0.3-1.7-0.9-2.4L20.4,19.4h0c-0.7-0.9-1.8-1.5-3-1.5    c-2.1,0-3.8,1.7-3.8,3.8c0,0.9,0.4,1.8,0.9,2.5L45.1,65l-30.7,40.9c-0.6,0.7-0.9,1.5-0.9,2.5c0,2.1,1.7,3.8,3.8,3.8    c1.2,0,2.3-0.6,3-1.5l0,0L52.8,67.4z"></path><path class="st2" d="M241.1,69H67.7c-1.2,0-2.3,0.7-3,1.7l0,0.1L37.6,106l0,0c-0.5,0.6-0.8,1.4-0.8,2.3c0,2.1,1.7,3.8,3.8,3.8    c1.2,0,2.3-0.6,3-1.5l0,0.1L69.6,77h171.5c2.1,0,3.8-1.9,3.8-4S243.1,69,241.1,69z"></path></g><path class="st3" d="M92.1,92.4c0,0.7-0.2,1.3-0.7,1.7c-0.5,0.4-1.2,0.6-2,0.6c-1,0-2.1-0.6-3.1-1.7c-0.3-0.3-0.5-0.5-0.6-0.6   c-0.5-0.5-1.2-0.9-2-1.2c-0.8-0.2-1.8-0.4-2.9-0.4c-1.6,0-2.8,0.3-3.7,0.8c-0.9,0.6-1.3,1.3-1.3,2.3c0,1.3,1.7,2.3,5.1,3   c0.8,0.2,1.5,0.3,1.9,0.4c2.1,0.4,3.7,0.8,4.7,1.1c1,0.3,1.8,0.6,2.6,0.9c1.2,0.6,2.1,1.4,2.8,2.3c0.6,1,0.9,2.1,0.9,3.5   c0,2.5-1,4.5-3.1,5.9c-2.1,1.5-4.9,2.2-8.5,2.2c-2,0-3.6-0.2-5-0.5c-1.4-0.4-2.8-0.9-4.1-1.7c-0.9-0.5-1.6-1.2-2.1-2   c-0.5-0.8-0.8-1.5-0.8-2.2c0-0.7,0.2-1.3,0.7-1.8c0.5-0.5,1.2-0.7,2-0.7c1.1,0,2.1,0.6,3,1.8c0.4,0.5,0.6,0.8,0.9,1   c0.6,0.6,1.3,1.1,2.2,1.4c0.9,0.3,1.9,0.4,3.1,0.4c1.9,0,3.3-0.3,4.3-0.8c1-0.6,1.5-1.4,1.5-2.4c0-1.5-2.5-2.8-7.5-3.7   c-0.2,0-0.3-0.1-0.4-0.1c-3.9-0.7-6.5-1.7-7.8-2.8c-1.4-1.1-2-2.7-2-4.8c0-2.4,1-4.3,3-5.6c2-1.3,4.8-2,8.3-2   c1.7,0,3.1,0.2,4.5,0.5c1.3,0.3,2.6,0.8,3.6,1.5c0.9,0.5,1.5,1.1,2.1,1.8C91.8,91.1,92.1,91.8,92.1,92.4z"></path><path class="st3" d="M117.9,107.9c1.1,0,2,0.2,2.5,0.6c0.6,0.4,0.8,1,0.8,1.7s-0.3,1.3-0.9,1.7c-0.6,0.4-1.4,0.6-2.5,0.6h-15.7   c-1.4,0-2.4-0.3-2.9-0.9c-0.6-0.6-0.8-1.6-0.8-3.1V91.3c0-1.6,0.2-2.6,0.8-3.2c0.6-0.6,1.5-0.8,2.9-0.8h15c1.1,0,1.9,0.2,2.5,0.6   c0.6,0.4,0.8,0.9,0.8,1.7c0,0.7-0.3,1.2-0.8,1.6c-0.6,0.4-1.4,0.5-2.5,0.5h-12.6v5.4h11.3c1.1,0,1.9,0.2,2.5,0.5   c0.5,0.4,0.8,0.9,0.8,1.7c0,0.7-0.3,1.2-0.8,1.6c-0.6,0.4-1.4,0.6-2.4,0.6h-11.3v6.5H117.9z"></path><path class="st3" d="M146.3,103.2h-4.6c-0.8,0-1.4-0.2-1.9-0.6c-0.5-0.4-0.7-0.9-0.7-1.6c0-0.6,0.2-1.2,0.7-1.5   c0.5-0.4,1.1-0.6,1.9-0.6h6.6c1.3,0,2.3,0.2,2.8,0.6c0.5,0.4,0.8,1,0.8,1.8v9.7c0,0.8-0.2,1.3-0.5,1.7c-0.4,0.4-0.9,0.6-1.6,0.6   c-0.6,0-1.1-0.2-1.5-0.4c-0.4-0.3-0.7-0.7-0.8-1.3l-0.5-1.9c-1.1,1.3-2.4,2.2-3.8,2.8c-1.4,0.6-3,0.9-4.9,0.9   c-4.2,0-7.6-1.2-10.1-3.7c-2.6-2.4-3.9-5.7-3.9-9.7c0-4,1.3-7.3,3.9-9.7c2.6-2.4,6-3.6,10.3-3.6c1.4,0,2.7,0.1,3.9,0.4   c1.2,0.2,2.4,0.6,3.4,1c1.5,0.7,2.6,1.4,3.4,2.2c0.8,0.8,1.2,1.7,1.2,2.5c0,0.7-0.3,1.3-0.8,1.8c-0.5,0.5-1.1,0.7-1.9,0.7   c-0.7,0-1.2-0.1-1.7-0.4c-0.5-0.2-1-0.7-1.7-1.4c-0.8-0.9-1.7-1.5-2.5-1.9c-0.9-0.4-1.9-0.6-3.1-0.6c-2.5,0-4.5,0.8-5.9,2.3   c-1.4,1.6-2.1,3.7-2.1,6.5c0,2.7,0.7,4.9,2.2,6.4c1.5,1.6,3.6,2.3,6.1,2.3c2,0,3.6-0.5,4.9-1.5   C145.1,106.3,145.9,104.9,146.3,103.2z"></path><path class="st3" d="M178.4,103.2h-4.6c-0.8,0-1.4-0.2-1.9-0.6c-0.5-0.4-0.7-0.9-0.7-1.6c0-0.6,0.2-1.2,0.7-1.5   c0.5-0.4,1.1-0.6,1.9-0.6h6.6c1.3,0,2.2,0.2,2.8,0.6c0.5,0.4,0.8,1,0.8,1.8v9.7c0,0.8-0.2,1.3-0.5,1.7c-0.4,0.4-0.9,0.6-1.7,0.6   c-0.6,0-1.1-0.2-1.5-0.4c-0.4-0.3-0.6-0.7-0.8-1.3l-0.5-1.9c-1.1,1.3-2.4,2.2-3.8,2.8c-1.4,0.6-3.1,0.9-5,0.9   c-4.2,0-7.6-1.2-10.2-3.7c-2.6-2.4-3.9-5.7-3.9-9.7c0-4,1.3-7.3,3.9-9.7c2.6-2.4,6-3.6,10.3-3.6c1.4,0,2.7,0.1,3.9,0.4   c1.2,0.2,2.4,0.6,3.4,1c1.5,0.7,2.6,1.4,3.4,2.2c0.8,0.8,1.2,1.7,1.2,2.5c0,0.7-0.2,1.3-0.8,1.8c-0.5,0.5-1.2,0.7-1.9,0.7   c-0.6,0-1.2-0.1-1.7-0.4c-0.5-0.2-1-0.7-1.8-1.4c-0.8-0.9-1.6-1.5-2.5-1.9c-0.9-0.4-1.9-0.6-3.1-0.6c-2.5,0-4.5,0.8-5.9,2.3   c-1.4,1.6-2.1,3.7-2.1,6.5c0,2.7,0.7,4.9,2.2,6.4c1.5,1.6,3.5,2.3,6.1,2.3c1.9,0,3.6-0.5,4.9-1.5   C177.3,106.3,178.1,104.9,178.4,103.2z"></path><path class="st3" d="M209.4,107.9c1.1,0,2,0.2,2.5,0.6c0.6,0.4,0.8,1,0.8,1.7s-0.3,1.3-0.9,1.7c-0.6,0.4-1.4,0.6-2.5,0.6h-15.7   c-1.4,0-2.4-0.3-2.9-0.9c-0.5-0.6-0.8-1.6-0.8-3.1V91.3c0-1.6,0.3-2.6,0.8-3.2c0.5-0.6,1.5-0.8,2.9-0.8h14.9c1.1,0,1.9,0.2,2.5,0.6   c0.6,0.4,0.8,0.9,0.8,1.7c0,0.7-0.3,1.2-0.8,1.6c-0.6,0.4-1.4,0.5-2.5,0.5H196v5.4h11.4c1.1,0,1.9,0.2,2.4,0.5   c0.6,0.4,0.8,0.9,0.8,1.7c0,0.7-0.3,1.2-0.8,1.6c-0.6,0.4-1.4,0.6-2.4,0.6H196v6.5H209.4z"></path><path class="st3" d="M223.1,91.7v6.7h7.2c1.6,0,2.7-0.3,3.4-0.8c0.7-0.5,1.1-1.4,1.1-2.5c0-1.1-0.4-1.9-1.1-2.5   c-0.7-0.6-1.8-0.9-3.2-0.9H223.1L223.1,91.7z M223.1,110.1c0,0.9-0.2,1.6-0.8,2.1c-0.5,0.5-1.3,0.7-2.3,0.7c-1,0-1.8-0.2-2.3-0.7   c-0.5-0.5-0.8-1.2-0.8-2.1V91.3c0-1.6,0.3-2.6,0.8-3.2c0.6-0.6,1.5-0.8,2.9-0.8h10.7c3.3,0,5.7,0.6,7.2,1.8c1.6,1.2,2.4,3,2.4,5.4   c0,1.5-0.4,2.8-1.2,3.9c-0.8,1-1.9,1.7-3.3,2.1c1.1,0.3,2,0.8,2.6,1.5s0.9,1.6,1,2.8c0.1,0.5,0.1,1.1,0.1,1.8   c0,0.8,0.1,1.3,0.1,1.5c0.1,0.3,0.2,0.7,0.3,1.3c0.1,0.6,0.2,1,0.2,1.2c0,0.7-0.3,1.3-0.8,1.7c-0.6,0.4-1.3,0.6-2.2,0.6   c-1.3,0-2.2-0.3-2.8-0.9c-0.5-0.6-0.9-2.2-1.1-4.8c-0.1-2-0.6-3.3-1.2-3.8c-0.6-0.5-1.7-0.7-3.3-0.7h-6.5V110.1z"></path></g></svg>