<?xml version="1.0" encoding="UTF-8" standalone="no"?>
<!-- Generator: Adobe Illustrator 19.0.0, SVG Export Plug-In . SVG Version: 6.00 Build 0)  -->

<svg
   xmlns:dc="http://purl.org/dc/elements/1.1/"
   xmlns:cc="http://creativecommons.org/ns#"
   xmlns:rdf="http://www.w3.org/1999/02/22-rdf-syntax-ns#"
   xmlns:svg="http://www.w3.org/2000/svg"
   xmlns="http://www.w3.org/2000/svg"
   xmlns:sodipodi="http://sodipodi.sourceforge.net/DTD/sodipodi-0.dtd"
   xmlns:inkscape="http://www.inkscape.org/namespaces/inkscape"
   version="1.1"
   id="Layer_1"
   x="0px"
   y="0px"
   viewBox="0 0 652 652"
   xml:space="preserve"
   sodipodi:docname="multilingual.svg"
   width="652"
   height="652"
   inkscape:version="0.92.4 (5da689c313, 2019-01-14)"><metadata
   id="metadata47"><rdf:RDF><cc:Work
       rdf:about=""><dc:format>image/svg+xml</dc:format><dc:type
         rdf:resource="http://purl.org/dc/dcmitype/StillImage" /><dc:title></dc:title></cc:Work></rdf:RDF></metadata><defs
   id="defs45" /><sodipodi:namedview
   pagecolor="#ffffff"
   bordercolor="#666666"
   borderopacity="1"
   objecttolerance="10"
   gridtolerance="10"
   guidetolerance="10"
   inkscape:pageopacity="0"
   inkscape:pageshadow="2"
   inkscape:window-width="1850"
   inkscape:window-height="1016"
   id="namedview43"
   showgrid="false"
   fit-margin-top="70"
   fit-margin-left="70"
   fit-margin-bottom="70"
   fit-margin-right="70"
   inkscape:zoom="0.4609375"
   inkscape:cx="-59.084746"
   inkscape:cy="326"
   inkscape:window-x="70"
   inkscape:window-y="27"
   inkscape:window-maximized="1"
   inkscape:current-layer="Layer_1" />
<path
   style="fill:#dae2f2"
   d="M 537,161 H 307.25 L 272.722,576.796 C 278.79,579.83 285.316,582 292.485,582 H 537 c 24.814,0 45,-20.186 45,-45 V 206 c 0,-24.814 -20.186,-45 -45,-45 z"
   id="path2"
   inkscape:connector-curvature="0" />
<path
   style="fill:#9c0000;fill-opacity:1"
   d="m 239.867,477.86 7.969,64.721 c 1.6,12.854 10.3,26.922 24.886,34.215 29.167,-31.374 9.614,-11.341 78.829,-85.796 z"
   id="path4"
   inkscape:connector-curvature="0" />
<path
   style="fill:#ca0000;fill-opacity:1"
   d="m 351.551,491 c 4.907,-5.608 9.211,-9.373 8.053,-17.095 L 314.164,109.419 C 311.366,86.948 292.162,70 269.516,70 H 115 C 90.186,70 70,90.186 70,115 v 331 c 0,24.814 20.186,45 45,45 78.402,0 157.898,0 236.551,0 z"
   id="path6"
   inkscape:connector-curvature="0" />
<path
   style="fill:#e6eeff"
   d="M 235.707,188.056 C 234.301,181.054 228.148,176 221,176 h -30 c -7.148,0 -13.301,5.054 -14.707,12.056 l -30,150 c -1.626,8.13 3.647,16.025 11.763,17.651 8.218,1.685 16.04,-3.647 17.651,-11.763 L 185.294,296 h 41.411 l 9.587,47.944 c 1.641,8.237 9.697,13.4 17.651,11.763 8.115,-1.626 13.389,-9.521 11.763,-17.651 z M 191.293,266 203.29,206 h 5.42 l 11.997,60 z"
   id="path8"
   inkscape:connector-curvature="0" />
<path
   style="fill:#53565c"
   d="m 506,296 h -45 v -15 c 0,-8.291 -6.709,-15 -15,-15 -8.291,0 -15,6.709 -15,15 v 15 h -45 c -8.291,0 -15,6.709 -15,15 0,8.291 6.709,15 15,15 h 4.006 c 8.535,27.383 21.07,48.81 35.136,65.702 -11.019,10.074 -21.802,18.339 -33.518,27.594 -6.459,5.171 -7.514,14.604 -2.328,21.079 5.162,6.465 14.632,7.514 21.078,2.329 12.73,-10.047 23.679,-18.456 35.626,-29.421 11.947,10.966 22.896,19.375 35.624,29.421 6.448,5.185 15.918,4.136 21.08,-2.329 5.186,-6.475 4.131,-15.908 -2.33,-21.079 -11.715,-9.255 -22.498,-17.52 -33.517,-27.594 14.066,-16.891 26.602,-38.318 35.136,-65.702 H 506 c 8.291,0 15,-6.709 15,-15 0,-8.291 -6.709,-15 -15,-15 z m -60,73.467 C 436.466,357.483 427.851,343.398 421.374,326 h 49.252 c -6.477,17.399 -15.092,31.483 -24.626,43.467 z"
   id="path10"
   inkscape:connector-curvature="0" />
<g
   id="g12"
   transform="translate(70,70)">
</g>
<g
   id="g14"
   transform="translate(70,70)">
</g>
<g
   id="g16"
   transform="translate(70,70)">
</g>
<g
   id="g18"
   transform="translate(70,70)">
</g>
<g
   id="g20"
   transform="translate(70,70)">
</g>
<g
   id="g22"
   transform="translate(70,70)">
</g>
<g
   id="g24"
   transform="translate(70,70)">
</g>
<g
   id="g26"
   transform="translate(70,70)">
</g>
<g
   id="g28"
   transform="translate(70,70)">
</g>
<g
   id="g30"
   transform="translate(70,70)">
</g>
<g
   id="g32"
   transform="translate(70,70)">
</g>
<g
   id="g34"
   transform="translate(70,70)">
</g>
<g
   id="g36"
   transform="translate(70,70)">
</g>
<g
   id="g38"
   transform="translate(70,70)">
</g>
<g
   id="g40"
   transform="translate(70,70)">
</g>
</svg>